Coordinates
version=1
nRows=7
nColumns=40
inDegrees=yes

Units are S.I. units (second, meters, Newtons, ...)
Angles are in degrees.

endheader
time	pelvis_tilt	pelvis_list	pelvis_rotation	pelvis_tx	pelvis_ty	pelvis_tz	hip_flexion_r	hip_adduction_r	hip_rotation_r	knee_angle_r	knee_angle_r_beta	ankle_angle_r	subtalar_angle_r	mtp_angle_r	hip_flexion_l	hip_adduction_l	hip_rotation_l	knee_angle_l	knee_angle_l_beta	ankle_angle_l	subtalar_angle_l	mtp_angle_l	lumbar_extension	lumbar_bending	lumbar_rotation	arm_flex_r	arm_add_r	arm_rot_r	elbow_flex_r	pro_sup_r	wrist_flex_r	wrist_dev_r	arm_flex_l	arm_add_l	arm_rot_l	elbow_flex_l	pro_sup_l	wrist_flex_l	wrist_dev_l
      8.77000000	     -1.30327677	     -3.94070657	     -5.50211289	      0.68595245	      0.93569658	      0.43502473	     30.41753824	     -3.86069643	     -2.98832810	     59.97147924	     59.97147924	     -0.38583376	    -17.29816404	      3.02107511	      8.62848655	     -3.52373879	     -6.74261292	     20.15799184	     20.15799184	     14.62812700	    -11.67685301	     -0.09245592	     -9.97782106	      6.71571662	      0.42495683	     -8.34560586	    -11.56083604	    -10.00702317	     22.36215348	     47.05360995	      0.00000000	      0.00000000	     15.33731949	    -14.95093290	     -8.77665143	     65.85615256	     47.39166508	      0.00000000	      0.00000000
      8.78400000	     -1.47579964	     -4.05862390	     -5.64409573	      0.68462996	      0.93580362	      0.43490188	     30.65592975	     -3.43134874	     -3.37341889	     56.62970950	     56.62970950	      0.29117049	    -16.71356248	      2.91906950	      8.15643055	     -3.61465278	     -6.94035193	     19.73243507	     19.73243507	     14.79252291	    -11.42331363	     -0.17384658	     -9.95097700	      6.73416191	      0.29887059	     -9.53206059	    -11.65507924	    -10.10161232	     22.00362078	     47.06560484	      0.00000000	      0.00000000	     16.04990481	    -15.23105145	     -9.09754568	     67.06097897	     47.43948891	      0.00000000	      0.00000000
      8.79800000	     -1.58518935	     -4.11517653	     -5.82265545	      0.68330741	      0.93573227	      0.43490480	     30.61214489	     -3.07624320	     -3.78106390	     52.80756641	     52.80756641	      0.32471506	    -16.21174662	      0.96934714	      7.64199916	     -3.69258098	     -7.40233046	     19.36331112	     19.36331112	     14.92876545	    -10.84578709	     -0.67464503	    -10.13139375	      6.67763127	     -0.04552100	    -10.63790871	    -11.73259997	    -10.58169688	     22.46612571	     47.06987289	      0.00000000	      0.00000000	     15.89106721	    -15.57028546	    -10.02125660	     70.25108853	     47.56910328	      0.00000000	      0.00000000
      8.81200000	     -1.76190501	     -4.17164273	     -5.96482639	      0.68192047	      0.93552573	      0.43496700	     30.52171569	     -2.74215866	     -4.31171915	     48.78436700	     48.78436700	      0.85838670	    -15.13653044	      0.81040739	      7.22903774	     -3.73232031	     -7.60790064	     19.02182889	     19.02182889	     15.10256437	    -10.60511227	     -0.76053302	    -10.16811574	      6.64473378	     -0.04186035	    -11.62493682	    -11.81522013	    -10.63709827	     22.23977724	     47.07281929	      0.00000000	      0.00000000	     16.61793386	    -15.69720243	    -10.26265075	     71.19009716	     47.60723779	      0.00000000	      0.00000000
      8.82600000	     -1.88725200	     -4.18058371	     -6.13131001	      0.68054472	      0.93522206	      0.43522605	     30.20484029	     -2.49269193	     -4.98966570	     44.48979929	     44.48979929	      1.20471102	    -13.68667606	      0.17263751	      6.78237955	     -3.76656818	     -8.03548485	     18.72858304	     18.72858304	     15.31298446	    -10.13498233	     -0.98268522	    -10.33798365	      6.52360962	      0.03735437	    -12.62893059	    -11.85807070	    -10.77681119	     22.36831031	     47.06476906	      0.00000000	      0.00000000	     17.18340882	    -15.73097812	    -10.53588437	     72.64390206	     47.65771713	      0.00000000	      0.00000000
      8.84000000	     -2.30192404	     -4.17373336	     -6.24487406	      0.67907051	      0.93446459	      0.43553292	     30.07572120	     -2.16862413	     -5.62966692	     40.05355309	     40.05355309	      1.48326515	    -12.19359796	      0.30778095	      6.72006003	     -3.79047877	     -8.15984306	     18.53191004	     18.53191004	     15.50017519	     -9.90869290	     -1.12797977	    -10.09229934	      6.47313117	     -0.09034311	    -13.31855253	    -11.87553136	    -10.84222880	     22.38508671	     47.06062955	      0.00000000	      0.00000000	     17.62302545	    -15.92817243	    -10.66722497	     73.30016967	     47.67967436	      0.00000000	      0.00000000
      8.85400000	     -2.46007999	     -4.18016439	     -6.35619371	      0.67780962	      0.93395133	      0.43600388	     29.47273841	     -1.90766216	     -6.52972489	     35.48455724	     35.48455724	      1.66832234	    -10.03592640	      0.25408818	      6.36232189	     -3.83980778	     -8.48278489	     18.34885569	     18.34885569	     15.72648428	     -9.48435174	     -1.35066395	    -10.23098538	      6.37229579	     -0.05132108	    -13.99053350	    -11.93065421	    -10.95062135	     22.57506631	     47.05153876	      0.00000000	      0.00000000	     18.01985739	    -15.93228984	    -10.78800014	     74.25463775	     47.70656643	      0.00000000	      0.00000000
